REM DIRINDEX 1
REM DIRNAME folder01
TITLE ""
FILE "30_dokkai_2_q22_25.mp3" MP3
  TRACK 01 AUDIO
    TITLE "0:"
    INDEX 01 00:00:00
  TRACK 02 AUDIO
    TITLE "1:cjc118_1467"
    INDEX 01 00:00:15
  TRACK 03 AUDIO
    TITLE "1:cjc118_1468"
    INDEX 01 00:05:73
  TRACK 04 AUDIO
    TITLE "1:cjc118_1469"
    INDEX 01 00:09:18
  TRACK 05 AUDIO
    TITLE "1:cjc118_1470"
    INDEX 01 00:10:16
  TRACK 06 AUDIO
    TITLE "1:cjc118_1471"
    INDEX 01 00:13:55
  TRACK 07 AUDIO
    TITLE "1:cjc118_1472"
    INDEX 01 00:15:66
  TRACK 08 AUDIO
    TITLE "1:cjc118_1473"
    INDEX 01 00:19:30
  TRACK 09 AUDIO
    TITLE "1:cjc118_1474"
    INDEX 01 00:22:64
  TRACK 10 AUDIO
    TITLE "1:cjc118_1475"
    INDEX 01 00:26:20
  TRACK 11 AUDIO
    TITLE "1:cjc118_1476"
    INDEX 01 00:29:66
  TRACK 12 AUDIO
    TITLE "1:cjc118_1477"
    INDEX 01 00:32:23
  TRACK 13 AUDIO
    TITLE "1:cjc118_1478"
    INDEX 01 00:37:05
  TRACK 14 AUDIO
    TITLE "1:cjc118_1479"
    INDEX 01 00:42:04
  TRACK 15 AUDIO
    TITLE "1:cjc118_1480"
    INDEX 01 00:45:32
  TRACK 16 AUDIO
    TITLE "1:cjc118_1481"
    INDEX 01 00:46:37
  TRACK 17 AUDIO
    TITLE "1:cjc118_1482"
    INDEX 01 00:49:69
  TRACK 18 AUDIO
    TITLE "1:cjc118_1483"
    INDEX 01 00:53:35
  TRACK 19 AUDIO
    TITLE "1:cjc118_1484"
    INDEX 01 00:57:11
  TRACK 20 AUDIO
    TITLE "1:cjc118_1485"
    INDEX 01 01:00:51
  TRACK 21 AUDIO
    TITLE "1:cjc118_1486"
    INDEX 01 01:06:53
  TRACK 22 AUDIO
    TITLE "1:cjc118_1487"
    INDEX 01 01:10:02
  TRACK 23 AUDIO
    TITLE "1:cjc118_1488"
    INDEX 01 01:14:66
  TRACK 24 AUDIO
    TITLE "1:cjc118_1489"
    INDEX 01 01:16:24
  TRACK 25 AUDIO
    TITLE "1:cjc118_1490"
    INDEX 01 01:18:43
  TRACK 26 AUDIO
    TITLE "1:cjc118_1491"
    INDEX 01 01:20:16
  TRACK 27 AUDIO
    TITLE "1:cjc118_1492"
    INDEX 01 01:21:55
  TRACK 28 AUDIO
    TITLE "1:cjc118_1493"
    INDEX 01 01:24:04
  TRACK 29 AUDIO
    TITLE "1:cjc118_1494"
    INDEX 01 01:25:09
  TRACK 30 AUDIO
    TITLE "1:cjc118_1495"
    INDEX 01 01:27:46
  TRACK 31 AUDIO
    TITLE "1:cjc118_1496"
    INDEX 01 01:28:63
  TRACK 32 AUDIO
    TITLE "1:cjc118_1497"
    INDEX 01 01:31:20
  TRACK 33 AUDIO
    TITLE "1:cjc118_1498"
    INDEX 01 01:32:39
  TRACK 34 AUDIO
    TITLE "1:cjc118_1499"
    INDEX 01 01:34:55
  TRACK 35 AUDIO
    TITLE "1:cjc118_1500"
    INDEX 01 01:35:71
  TRACK 36 AUDIO
    TITLE "1:cjc118_1501"
    INDEX 01 01:38:00
  TRACK 37 AUDIO
    TITLE "1:cjc118_1502"
    INDEX 01 01:39:55
  TRACK 38 AUDIO
    TITLE "1:cjc118_1503"
    INDEX 01 01:41:14
  TRACK 39 AUDIO
    TITLE "1:cjc118_1504"
    INDEX 01 01:47:13
  TRACK 40 AUDIO
    TITLE "1:cjc118_1505"
    INDEX 01 01:48:20
  TRACK 41 AUDIO
    TITLE "1:cjc118_1506"
    INDEX 01 01:51:34
  TRACK 42 AUDIO
    TITLE "1:cjc118_1507"
    INDEX 01 01:52:46
  TRACK 43 AUDIO
    TITLE "1:cjc118_1508"
    INDEX 01 01:55:69
  TRACK 44 AUDIO
    TITLE "1:cjc118_1509"
    INDEX 01 01:57:13
  TRACK 45 AUDIO
    TITLE "1:cjc118_1510"
    INDEX 01 02:00:18
  TRACK 46 AUDIO
    TITLE "1:cjc118_1511"
    INDEX 01 02:01:33
  TRACK 47 AUDIO
    TITLE "1:cjc118_1512"
    INDEX 01 02:04:00
  TRACK 48 AUDIO
    TITLE "1:cjc118_1513"
    INDEX 01 02:05:54
  TRACK 49 AUDIO
    TITLE "1:cjc118_1514"
    INDEX 01 02:07:24
  TRACK 50 AUDIO
    TITLE "1:cjc118_1515"
    INDEX 01 02:10:30
  TRACK 51 AUDIO
    TITLE "1:cjc118_1516"
    INDEX 01 02:11:41
  TRACK 52 AUDIO
    TITLE "1:cjc118_1517"
    INDEX 01 02:14:33
  TRACK 53 AUDIO
    TITLE "1:cjc118_1518"
    INDEX 01 02:15:45
  TRACK 54 AUDIO
    TITLE "1:cjc118_1519"
    INDEX 01 02:19:05
  TRACK 55 AUDIO
    TITLE "1:cjc118_1520"
    INDEX 01 02:20:18
  TRACK 56 AUDIO
    TITLE "1:cjc118_1521"
    INDEX 01 02:23:03
  TRACK 57 AUDIO
    TITLE "1:cjc118_1522"
    INDEX 01 02:24:18
  TRACK 58 AUDIO
    TITLE "1:cjc118_1523"
    INDEX 01 02:26:17
  TRACK 59 AUDIO
    TITLE "1:cjc118_1524"
    INDEX 01 02:27:73
  TRACK 60 AUDIO
    TITLE "1:cjc118_1525"
    INDEX 01 02:29:45
  TRACK 61 AUDIO
    TITLE "1:cjc118_1526"
    INDEX 01 02:33:11
  TRACK 62 AUDIO
    TITLE "1:cjc118_1527"
    INDEX 01 02:34:24
  TRACK 63 AUDIO
    TITLE "1:cjc118_1528"
    INDEX 01 02:36:55
  TRACK 64 AUDIO
    TITLE "1:cjc118_1529"
    INDEX 01 02:37:66
  TRACK 65 AUDIO
    TITLE "1:cjc118_1530"
    INDEX 01 02:40:31
  TRACK 66 AUDIO
    TITLE "1:cjc118_1531"
    INDEX 01 02:41:52
  TRACK 67 AUDIO
    TITLE "1:cjc118_1532"
    INDEX 01 02:44:11
  TRACK 68 AUDIO
    TITLE "1:cjc118_1533"
    INDEX 01 02:45:24
  TRACK 69 AUDIO
    TITLE "0:"
    INDEX 01 02:47:54
